<svg xmlns="http://www.w3.org/2000/svg" xmlns:xlink="http://www.w3.org/1999/xlink" width="604" zoomAndPan="magnify" viewBox="0 0 453.75 453.749989" height="604" preserveAspectRatio="xMidYMid meet" version="1.0"><defs><clipPath id="806271fd4f"><path d="M 85.488281 45.328125 L 368 45.328125 L 368 409.628906 L 85.488281 409.628906 Z M 85.488281 45.328125 " clip-rule="nonzero"/></clipPath></defs><g clip-path="url(#806271fd4f)"><path fill="#ffffff" d="M 367.800781 381.992188 C 367.800781 284.816406 304.554688 206.085938 226.648438 206.085938 C 148.738281 206.085938 85.492188 284.816406 85.492188 381.992188 C 85.492188 397.148438 148.738281 409.5 226.648438 409.5 C 304.554688 409.5 367.800781 397.148438 367.800781 381.992188 Z M 226.648438 45.328125 C 269.140625 45.328125 303.566406 79.753906 303.566406 122.25 C 303.566406 164.742188 269.140625 199.167969 226.648438 199.167969 C 184.152344 199.167969 149.726562 164.742188 149.726562 122.25 C 149.726562 79.753906 184.152344 45.328125 226.648438 45.328125 Z M 226.648438 45.328125 " fill-opacity="1" fill-rule="evenodd"/></g></svg>